<svg version="1.2" xmlns="http://www.w3.org/2000/svg" viewBox="0 0 220 139" width="220" height="139">
	<title>logo</title>
	<style>
		.s0 { opacity: .99;fill: currentColor } 
		.s1 { opacity: 1;fill: #0c79fe } 
		.s2 { opacity: .67;fill: currentColor } 
		.s3 { opacity: .6;fill: currentColor } 
		.s4 { opacity: .29;fill: currentColor } 
		.s5 { opacity: .19;fill: currentColor } 
		.s6 { opacity: .72;fill: currentColor } 
		.s7 { opacity: .85;fill: currentColor } 
		.s8 { opacity: .36;fill: currentColor } 
		.s9 { opacity: .48;fill: currentColor } 
		.s10 { opacity: .76;fill: #0d79fe } 
		.s11 { opacity: .35;fill: #5482fe } 
		.s12 { opacity: .36;fill: #eff4fc } 
		.s13 { opacity: .36;fill: #e105fd } 
		.s14 { opacity: .39;fill: #03fdfd } 
	</style>
	<g id="Background">
		<path id="Path 0" fill-rule="evenodd" class="s0" d="m53.3 4.1c0.4-0.1 1.9 0.4 3.5 1 1.5 0.6 3 1.6 3.4 2.2 0.4 0.7 0.8 1.5 0.8 2 0 0.4-1 0.7-2.2 0.7-1.3 0-2.8-0.5-3.5-1.2-0.7-0.8-1.9-1-2.8-0.5-0.8 0.4-1.5 1.3-1.5 2 0 0.6 2.1 2.1 4.8 3.2 2.8 1.2 5 2.8 5.3 4 0.4 1.1 0.2 3-0.2 4.3-0.5 1.2-2.1 2.7-3.6 3.3-1.6 0.5-3.9 0.7-5.3 0.4-1.4-0.4-3.3-1.4-4.3-2.3-1-0.9-1.8-2-1.7-2.4 0-0.5 0.9-0.8 2-0.8 1.1 0 2.8 0.5 3.8 1.1 0.9 0.7 2.5 0.9 3.5 0.5 0.9-0.3 1.5-1.2 1.3-1.9-0.1-0.6-0.9-1.5-1.7-1.9-0.8-0.4-2.7-1.3-4.3-2-1.6-0.7-3.4-2-3.9-2.8-0.6-0.9-0.6-2.6-0.1-4.2 0.4-1.4 2-3.1 3.4-3.6 1.4-0.6 2.8-1.1 3.3-1.1zm123.2 0.5c1.7 0.3 4.2 1.9 5.8 3.5 2 2.2 2.7 3.9 2.7 6.9 0 3-0.7 4.8-2.9 7.3-2.5 2.7-3.6 3.2-7.6 3.2-4 0-5.1-0.5-7.6-3.3-2.1-2.3-2.9-4.2-2.9-7 0-2 0.7-4.8 1.6-6.1 0.9-1.2 3-2.9 4.8-3.7 1.7-0.7 4.4-1.1 6.1-0.8zm-7.6 10.9c0 1.1 0.8 2.8 1.8 3.7 1 1 2.7 1.8 3.8 1.8 1.1 0 2.8-0.7 3.7-1.7 1-1 1.8-2.9 1.8-4.3 0-1.4-0.7-3.3-1.7-4.2-1-1-2.8-1.8-4-1.8-1.2 0-2.9 1-3.8 2.2-1 1.2-1.7 3.2-1.6 4.3zm-160.9-10.5h5.5c3 0 6.5 0.5 7.8 1 1.2 0.6 2.7 2 3.4 3.3 0.6 1.2 1.4 2.9 1.6 3.7 0.3 0.8 0.2 3.1-0.3 5-0.5 1.9-1.6 4.2-2.6 5-1 0.9-4.5 1.7-15.4 2.5zm7 16c1.1 0 2.9-0.5 4-1 1.4-0.7 2-2 2-4.5 0-1.9-0.7-4.2-1.5-5-0.8-0.8-2.6-1.5-4-1.5-2.4 0-2.5 0.3-2.5 6 0 5.3 0.2 6 2 6zm15-16h6.5c5.1 0 6.5 0.3 6.5 1.5 0 1.1-1.1 1.5-4 1.5-3.6 0-4 0.2-4 2.5 0 2.2 0.4 2.5 3.5 2.5 2.8 0 3.5 0.4 3.5 2 0 1.6-0.7 2-3.5 2-3.1 0-3.5 0.3-3.5 2.5 0 2.2 0.4 2.5 4 2.5 2.9 0 4 0.4 4 1.5 0 1.2-1.5 1.6-13 2zm42 0c6.4 0 8 0.3 8 1.5 0 0.9-1.1 1.6-2.8 1.7-2.7 0.3-2.7 0.3-3 8.5-0.2 7.4-0.4 8.4-2.2 8.8-1.9 0.5-2 0-2-17.5h-3q-3 0-3-1.5c0-1.2 1.6-1.5 8-1.5zm11 0h5v20.5l-2.5-0.3c-2.5-0.2-2.5-0.3-2.5-10.2zm9 0h2.7c2.3 0 3.5 1.1 10.8 12.5l0.1-6.3c0.1-6 0.2-6.2 5.4-6.2v20.5h-2.5c-2 0-3.4-1.3-11-12.9l-0.3 6.7c-0.2 6.4-0.3 6.7-5.2 6.7zm32.1 0c1.6 0 3.1 0.3 3.3 0.7 0.2 0.5 2 5.1 7.3 19.8l-2.6-0.1c-1.6 0-2.7-0.7-2.9-1.7-0.1-1.3-1.3-1.7-4.7-1.7-3.3 0-4.7 0.5-5.3 1.7-0.4 1-1.7 1.8-3 1.8-1.5 0-2-0.4-1.6-1.5 0.3-0.8 1.9-5.4 3.6-10.3 2.8-8.2 3.1-8.7 5.9-8.7zm-0.9 9c-0.7 1.9-1.1 3.6-0.9 3.8 0.1 0.1 1.1 0.1 2.3 0 1.9-0.3 2-0.6 0.9-3.8l-1.2-3.5zm21.9-9c6.4 0 8 0.3 8 1.5 0 1-1 1.5-6 1.5v8.7c0 8.7-0.1 8.8-2.5 8.8-2.5 0-2.5-0.1-2.5-8.8 0-8.6-0.1-8.7-2.5-8.7-1.6 0-2.5-0.6-2.5-1.5 0-1.2 1.5-1.5 8-1.5zm13 0c1.8 0 2 0.7 2 10 0 9.2-0.2 10-2 10.5-1.9 0.5-2 0-2-10 0-9.8 0.1-10.5 2-10.5zm33.2 0c1.7-0.1 3.4 1.6 11.3 13.4l0.1-6.7c0.1-6.1 0.3-6.7 2.3-6.7 2 0 2.1 0.5 2 20.5l-2.5-0.5c-1.8-0.3-3.7-2.3-6.3-6.2-2-3.2-4-5.8-4.4-5.8-0.4 0-0.7 2.7-0.7 6 0 5.2-0.3 6.1-2 6.5-1.9 0.5-2 0-2-10 0-10.2 0-10.5 2.2-10.5zm-183.2 30h40v10h-14v42h-12v-42h-14zm106 0h12l0.2 18.6c0.3 18.5 0.3 18.6 2.8 20.5 1.5 1.2 4 2 6.2 1.9 2.5 0 4.7-0.8 9.3-4.8l0.2-36.2h12.3l-0.1 18.2c0 15.7-0.2 18.9-1.8 22.3-1 2.2-2.9 5-4.3 6.2-1.3 1.2-4 2.9-6.1 3.7-2 0.9-6.4 1.6-9.7 1.6-3.3 0-7.7-0.7-9.8-1.6-2-0.8-4.6-2.3-5.6-3.2-1.1-0.9-2.7-3.5-3.8-5.7-1.5-3.4-1.8-6.7-1.8-22.8zm53 0h13.2c11.8 0 13.8 0.3 17.7 2.3 2.5 1.2 5.4 3.5 6.5 5.1 1.5 2.1 2.1 4.3 2.1 8.6 0 4.4-0.5 6.6-2.1 8.7-1.2 1.6-3.7 3.7-9.3 6.9l2.8 4.5c1.5 2.4 4.1 7 9.1 15.9l-13.5 0.1-5.5-10c-3.7-6.7-6.1-10-7.3-10-1.5 0-1.7 1.1-1.7 19.9l-12 0.1zm12 22.9c11.7-0.4 12.6-0.8 13.8-2.9 0.9-1.6 1.2-3.6 0.8-5.3-0.4-2-1.5-3-3.9-3.8-1.8-0.5-4.9-1-7-1l-3.7 0.1zm15.2 38c1.5 0 4.2 0.5 6 1.3 1.8 0.7 4.1 2.4 5 3.7 1 1.4 1.8 3 1.8 3.7 0 0.8-1.5 1.3-4 1.3-2.3 0-4.2-0.6-4.5-1.3-0.2-0.7-1.2-1.6-2.2-2-1-0.5-2.6-0.6-3.6-0.3-0.9 0.3-1.7 1.3-1.8 2.3 0 1 0.6 2.3 1.3 2.9 0.7 0.7 3.3 2 5.8 2.8 2.5 0.9 5.5 2.6 6.8 3.9 1.5 1.5 2.2 3.3 2.2 5.9 0 2.6-0.8 4.5-2.5 6.3-1.4 1.3-4.2 2.7-6.3 3.1-2 0.3-5.2 0.3-7 0-1.8-0.4-4.3-1.8-5.7-3.1-1.4-1.4-2.5-3.5-2.5-4.5 0-1.7 0.7-2 3.5-2 2.3 0 4.1 0.6 5.2 2.1 1.4 1.6 2.4 2 4.5 1.5 2.1-0.5 2.8-1.2 2.8-3.1 0-2.2-0.9-2.9-5.8-4.6-3.1-1.2-6.7-3.1-8-4.3-1.5-1.4-2.3-3.3-2.2-5.4 0-1.8 0.4-4.2 1-5.2 0.5-1.1 2.4-2.7 4.2-3.5 1.8-0.8 4.5-1.5 6-1.5zm-186.2 1h7l0.5 26.5 5.2 0.2c5.1 0.2 5.3 0.3 5.3 6.3h-18zm23 0h20v6h-13v7h5.5c5.4 0 5.5 0 5.5 3 0 2.9-0.1 3-11 3l0.5 7.5 6.2 0.2c6.3 0.2 6.3 0.3 6.3 6.3h-20zm35.2 0l9.3-0.1 5.7 15.8c3.2 8.7 5.8 16.1 5.8 16.5 0 0.4-1.8 0.8-4 0.8-3.7 0-4.1-0.3-5-6h-7c-6.9 0-7 0-8 3-0.9 2.6-1.5 2.9-8.5 2.9zm1.1 19.5c-0.2 0.6 1.1 0.8 3.2 0.5 3-0.4 3.5-0.9 3.1-2.5-0.3-1.1-1-3.3-1.6-4.8-0.6-1.5-1.2-2.7-1.4-2.7-0.2 0-0.9 1.9-1.6 4.2-0.7 2.4-1.5 4.7-1.7 5.3zm24.7-19.5h8.7c6.3 0 9.7 0.5 12.2 1.7 2 1 4.6 3.4 5.8 5.3 1.7 2.6 2.3 4.9 2.3 9 0 4-0.6 6.4-2.3 8.9-1.2 1.9-3.8 4.4-5.7 5.5-2.7 1.5-5.7 2.1-21 2.6zm7.9 26.5c6.9-1.2 9.5-2.6 10.8-4 1.6-1.7 2.3-3.8 2.3-6.5 0-3-0.7-4.7-2.5-6.5-1.9-1.9-3.6-2.5-6.5-2.5h-4zm26-26.5h20v6h-12v7h5.5c5.4 0 5.5 0 5.5 3 0 2.9-0.1 3-11 3v8h12v6h-20zm26 0h9c5.6 0 10 0.5 11.8 1.3 1.5 0.8 3.3 2.7 4 4.3 0.8 1.6 1.1 4.3 0.8 6.1-0.4 2.1-1.8 4.3-3.8 5.9-2.7 2.1-3.1 2.9-2.2 4.2 0.6 0.9 2.3 3.8 6.4 11.2h-4.2c-4.3 0-4.3 0-7.8-6.5-1.9-3.6-4.1-6.5-4.7-6.5-0.9 0-1.3 1.9-1.3 13h-8zm8 14c7 0 8.3-0.5 9-2 0.6-1.1 1-2.2 1-2.5 0-0.3-0.7-1.2-1.5-2-0.8-0.8-3.1-1.5-5-1.5-3.4 0-3.5 0.1-3.5 4z"/>
		<path id="Path 1" fill-rule="evenodd" class="s1" d="m78.3 34c3.1 0 7.4 0.7 9.5 1.5 2 0.9 5.4 3.3 7.5 5.3 2.6 2.5 4.3 5.4 5.4 9.2 1 3.7 1.3 7.2 0.9 10.5-0.4 2.8-2.1 7.7-3.9 10.9-1.7 3.3-5.1 7.9-7.4 10.3-2.6 2.6-5.8 4.7-8 5.3-2.4 0.6-5.1 0.6-7.3 0-2.2-0.6-5.4-2.9-8.7-6.4-2.9-3.1-6.5-8.2-8-11.3-2.1-4.5-2.7-7.3-2.7-12.3 0-4.6 0.6-7.7 2.1-10.5 1.2-2.2 3.4-5.2 5-6.7 1.5-1.5 4.4-3.4 6.3-4.2 1.9-0.8 6.1-1.5 9.3-1.6zm-7.3 19.5q-1 2.5 0 5.5c0.5 1.7 1.9 3.5 3 4 1.1 0.5 3.2 1 4.8 1 1.5 0 3.6-0.6 4.7-1.3 1.1-0.8 2.4-2.7 2.8-4.3 0.5-1.7 0.4-3.9-0.2-5.4-0.6-1.4-2.2-3.1-3.6-3.7-1.4-0.7-3.3-1.3-4.2-1.3-1 0-2.8 0.7-4 1.5-1.3 0.8-2.8 2.6-3.3 4z"/>
		<path id="Path 2" class="s2" d="m10.4 4.7c1.6 0.2 3.9 0.2 5 0 1.2-0.2-0.2-0.4-2.9-0.4-2.8 0-3.7 0.2-2.1 0.4zm82.8 0c0.9 0.2 2.2 0.2 3 0 0.7-0.3 0-0.5-1.7-0.5-1.7 0-2.3 0.2-1.3 0.5zm13.5-0.1c0.7 0.2 1.9 0.2 2.5 0 0.7-0.3 0.2-0.4-1.2-0.4-1.4 0-1.9 0.1-1.3 0.4zm16 0c0.7 0.2 1.9 0.2 2.5 0 0.7-0.3 0.2-0.4-1.2-0.4-1.4 0-1.9 0.1-1.3 0.4zm23.8 0.1c1.1 0.2 3.1 0.2 4.5 0 1.4-0.2 0.5-0.4-2-0.4-2.5 0-3.6 0.2-2.5 0.4zm46.8 14.8c0 3.3 0.2 4.4 0.4 2.5 0.2-1.9 0.2-4.6 0-6-0.2-1.4-0.4 0.2-0.4 3.5zm-27.1 19.5c0 1.4 0.2 1.8 0.5 1 0.2-0.8 0.2-2 0-2.5-0.3-0.5-0.5 0.1-0.5 1.5zm-155.4 57.7c1.3 0.2 3.1 0.2 4 0 0.9-0.3-0.1-0.5-2.3-0.4-2.2 0-3 0.2-1.7 0.4zm19.6 0.6c-0.3 0.8-0.4 4.5-0.2 8.3l0.4 6.9 0.4-15.5 19.5-0.6c-17.2-0.3-19.7-0.1-20.1 0.9zm63.4-0.7c0.6 0.2 1.8 0.2 2.5 0 0.6-0.3 0.1-0.4-1.3-0.4-1.4 0-1.9 0.1-1.2 0.4zm33.4 0.1c0.9 0.2 2.2 0.2 3 0 0.7-0.3 0-0.5-1.7-0.5-1.6 0-2.3 0.2-1.3 0.5zm-96.9 29.8c0 2.4 0.1 3 0.4 1.5 0.2-1.4 0.2-3.2 0-4-0.3-0.8-0.5 0.3-0.4 2.5zm11.1-2.8c1.6 0.2 3.9 0.2 5 0 1.2-0.2-0.1-0.4-2.9-0.4-2.8 0-3.7 0.2-2.1 0.4z"/>
		<path id="Path 3" class="s3" d="m33.5 4.7c1.6 0.2 4.6 0.2 6.5 0 1.9-0.2 0.6-0.4-3-0.4-3.6 0-5.1 0.2-3.5 0.4zm32.3-0.1c0.6 0.2 1.8 0.2 2.5 0 0.6-0.3 0.1-0.4-1.3-0.4-1.4 0-1.9 0.1-1.2 0.4zm9.4 0.1c0.9 0.2 2.2 0.2 3 0 0.7-0.3 0-0.5-1.7-0.5-1.7 0-2.3 0.2-1.3 0.5zm63.2 0c1.6 0.2 3.9 0.2 5 0 1.2-0.2-0.2-0.4-2.9-0.4-2.8 0-3.7 0.2-2.1 0.4zm50.1 0.6c-0.3 0.8-0.4 5.6-0.2 10.8l0.3 9.4 0.4-20.5 5.5-0.7c-4.3-0.2-5.8 0.3-6 1zm14-0.1c-0.2 0.7-0.5 3.7-0.7 6.6-0.2 2.8 0 5.2 0.4 5.2 0.5 0 0.8-2.7 0.8-6 0-4.9 0.3-6.1 1.7-6.4 1.7-0.3 1.7-0.4 0-0.5-1 0-1.9 0.5-2.2 1.1zm4.9 10.3c0 6 0.1 8.3 0.3 5 0.2-3.3 0.2-8.3 0-11-0.2-2.8-0.3-0.1-0.3 6zm-169.6-6.8c1.3 0.2 3.1 0.2 4 0 0.9-0.3-0.1-0.5-2.3-0.4-2.2 0-3 0.2-1.7 0.4zm27.4 0c0.9 0.2 2.2 0.2 3 0 0.7-0.3 0-0.5-1.7-0.5-1.7 0-2.3 0.2-1.3 0.5zm11.6-0.1c0.6 0.2 1.8 0.2 2.5 0 0.6-0.3 0.1-0.4-1.3-0.4-1.4 0-1.9 0.1-1.2 0.4zm71.7 0.1c1.1 0.2 2.7 0.2 3.5 0 0.8-0.3-0.1-0.5-2-0.5-1.9 0-2.6 0.2-1.5 0.5zm-110.3 97.8c0 1.9 0.2 2.3 0.5 1 0.2-1.1 0.2-2.4-0.1-3-0.2-0.5-0.4 0.3-0.4 2zm-7.9 11c0 3.3 0.2 4.4 0.4 2.5 0.2-1.9 0.2-4.6 0-6-0.2-1.4-0.4 0.2-0.4 3.5zm7.9 2c0 1.9 0.2 2.3 0.5 1 0.2-1.1 0.2-2.4-0.1-3-0.2-0.5-0.4 0.3-0.4 2z"/>
		<path id="Path 4" class="s4" d="m7.3 13.5c0 4.4 0.2 6 0.4 3.5 0.2-2.5 0.2-6.1 0-8-0.2-1.9-0.4 0.1-0.4 4.5zm30.5 8.2c1.3 0.2 3.1 0.2 4 0 0.9-0.3-0.1-0.5-2.3-0.4-2.2 0-3 0.2-1.7 0.4zm-20.3 13c5.5 0.2 14.7 0.2 20.5 0 5.8-0.1 1.3-0.3-10-0.3-11.3 0-16 0.2-10.5 0.3zm99.5 0c1.9 0.2 4.6 0.2 6 0 1.4-0.2-0.2-0.4-3.5-0.4-3.3 0-4.4 0.2-2.5 0.4zm33.8 0l6.2 0.3 0.5 15v-15.5l-13-0.2zm20.3 0.1c3 0.2 8.1 0.2 11.5 0 3.3-0.2 0.8-0.4-5.5-0.4-6.4 0-9.1 0.2-6 0.4zm-149.9 12.8c0.1 1.9 0.2 2.2 0.5 1 0.3-1.1 0.3-2.5 0-3-0.3-0.6-0.5 0.3-0.5 2zm-13.8 62c0 3.3 0.2 4.4 0.4 2.5 0.2-2 0.2-4.7 0-6-0.3-1.4-0.4 0.2-0.4 3.5zm-0.1 16c0 2.4 0.2 3 0.5 1.5 0.2-1.4 0.2-3.2-0.1-4-0.2-0.9-0.4 0.3-0.4 2.5zm10.6-1.8c1.2 0.2 3 0.2 4 0 0.9-0.3-0.1-0.5-2.3-0.5-2.2 0-3 0.2-1.7 0.5z"/>
		<path id="Path 5" class="s5" d="m34.4 67.5c0 10.5 0.2 14.5 0.3 9 0.2-5.5 0.2-14 0-19-0.1-5-0.3-0.5-0.3 10zm123-8.5c0 5.2 0.1 7.3 0.3 4.5 0.2-2.8 0.2-7 0-9.5-0.2-2.5-0.3-0.2-0.3 5zm-23 47.2c0.1 3.3 0.2 3.3 5.4 3.5 5 0.3 5.2 0.4 5.5 3.3 0.2 2.8 0.2 2.8 0.2-0.2 0-3.3 0-3.3-5.2-3.6-5.1-0.2-5.3-0.3-5.6-3.2-0.4-2.8-0.4-2.8-0.3 0.2zm-93.4 3.5c1.4 0.2 3.9 0.2 5.5 0 1.7-0.2 0.5-0.4-2.5-0.4-3 0-4.4 0.2-3 0.4zm93.3 9.8c0 2.4 0.1 3 0.4 1.5 0.2-1.4 0.2-3.2 0-4-0.3-0.8-0.5 0.3-0.4 2.5z"/>
		<path id="Path 6" class="s6" d="m160.4 15.5c0 6.1 0.1 8.3 0.3 5 0.2-3.3 0.2-8.3 0-11-0.2-2.8-0.3-0.1-0.3 6zm-47 36c0 9.4 0.2 13.4 0.3 9 0.2-4.4 0.2-12 0-17-0.1-5-0.3-1.4-0.3 8zm53 9.5c0 11.3 0.2 15.8 0.3 10 0.2-5.8 0.2-15 0-20.5-0.1-5.5-0.3-0.8-0.3 10.5zm-0.2 24c0 1.4 0.2 1.8 0.5 1 0.2-0.8 0.2-2 0-2.5-0.3-0.5-0.5 0.1-0.5 1.5zm-32.5 2.6c0.7 0.2 1.9 0.2 2.5 0 0.7-0.3 0.2-0.4-1.2-0.4-1.4 0-1.9 0.1-1.3 0.4zm-65.2 9.1c1.1 0.2 3.1 0.2 4.5 0 1.4-0.2 0.5-0.4-2-0.4-2.5 0-3.6 0.2-2.5 0.4zm30 0c1.1 0.2 3.1 0.2 4.5 0 1.4-0.2 0.5-0.4-2-0.4-2.5 0-3.6 0.2-2.5 0.4zm39.9 0l7.8 0.4c0.3 5.1 0.3 5.1 0.3 2.7v-3.3l-15.9-0.1zm15.6 0c1.4 0.2 3.9 0.2 5.5 0 1.7-0.3 0.5-0.5-2.5-0.5-3 0-4.4 0.2-3 0.5zm-16 27c1.9 0.2 4.6 0.2 6 0 1.4-0.3-0.2-0.5-3.5-0.4-3.3 0-4.4 0.1-2.5 0.4zm8.2 3.7c0 1.9 0.2 2.3 0.5 1 0.2-1.1 0.2-2.4 0-3-0.3-0.5-0.5 0.4-0.5 2z"/>
		<path id="Path 7" class="s7" d="m74 17c0 6.8-0.3 8.1-1.8 8.4-1.2 0.3-1 0.4 0.6 0.5 2.1 0.1 2.2-0.2 2.2-8.4 0-4.7-0.2-8.5-0.5-8.5-0.3 0-0.5 3.6-0.5 8zm-63.5 8.7c1.1 0.2 3.1 0.2 4.5 0 1.4-0.2 0.5-0.4-2-0.4-2.5 0-3.6 0.2-2.5 0.4zm23 0c1.6 0.2 4.6 0.2 6.5 0 1.9-0.2 0.6-0.4-3-0.4-3.6 0-5.1 0.2-3.5 0.4zm50.3-0.1c0.6 0.2 1.8 0.2 2.5 0 0.6-0.3 0.1-0.4-1.3-0.4-1.4 0-1.9 0.1-1.2 0.4zm-68.4 84.4c0 7.4 0.1 10.3 0.3 6.5 0.2-3.8 0.2-9.9 0-13.5-0.2-3.6-0.3-0.4-0.3 7z"/>
		<path id="Path 8" class="s8" d="m59 10c-2.4 0.8-2.4 0.8-0.3 0.9 1.3 0.1 2.5-0.3 2.8-0.9 0.2-0.6 0.3-1 0.2-0.9-0.1 0.1-1.3 0.5-2.7 0.9zm10.4 7.5c0 5 0.1 7.2 0.3 5 0.2-2.2 0.2-6.3 0-9-0.2-2.8-0.3-1-0.3 4zm-48 51c0 10.5 0.2 14.5 0.3 9 0.2-5.5 0.2-14 0-19-0.1-5-0.3-0.5-0.3 10zm122.9-10c0 2.8 0.2 3.7 0.4 2 0.2-1.6 0.2-3.9 0-5-0.2-1.1-0.4 0.3-0.4 3zm-118.1 68.5c0 1.9 0.2 2.8 0.5 2 0.2-0.8 0.2-2.4 0-3.5-0.3-1.1-0.5-0.4-0.5 1.5z"/>
		<path id="Path 9" class="s9" d="m155.4 15c0 5.8 0.1 8 0.3 5 0.2-3 0.2-7.8 0-10.5-0.2-2.8-0.3-0.3-0.3 5.5zm-64 98.5c0 9.3 0.2 13.4 0.3 9 0.2-4.4 0.2-12 0-17-0.1-5-0.3-1.3-0.3 8zm-42.2-0.5c0 1.9 0.2 2.8 0.5 2 0.2-0.8 0.2-2.4 0-3.5-0.3-1.1-0.5-0.4-0.5 1.5z"/>
		<path id="Path 10" class="s10" d="m67 82.5c1.4 1.4 2.7 2.6 3 2.6 0.3 0-0.4-1.2-1.6-2.6-1.2-1.4-2.5-2.5-3-2.5-0.5 0 0.2 1.1 1.6 2.5z"/>
		<path id="Path 11" class="s11" d="m77.5 33.7c1.1 0.2 2.7 0.2 3.5 0 0.8-0.3-0.1-0.5-2-0.5-1.9 0-2.6 0.2-1.5 0.5z"/>
		<path id="Path 12" class="s12" d="m7.2 23.5c0 1.9 0.2 2.3 0.5 1 0.2-1.1 0.2-2.4-0.1-3-0.2-0.6-0.4 0.4-0.4 2zm0.1 15c0 2.4 0.1 3 0.4 1.5 0.2-1.4 0.2-3.2 0-4-0.3-0.8-0.5 0.3-0.4 2.5zm136.9 0.5c0 1.4 0.2 1.8 0.5 1 0.2-0.8 0.2-2 0-2.5-0.3-0.5-0.5 0.1-0.5 1.5zm-137 78c0 1.4 0.2 1.8 0.5 1 0.2-0.8 0.2-2 0-2.5-0.3-0.5-0.5 0.1-0.5 1.5z"/>
		<path id="Path 13" class="s13" d="m144.2 46c0 1.9 0.2 2.8 0.5 2 0.2-0.8 0.2-2.4 0-3.5-0.3-1.1-0.5-0.4-0.5 1.5z"/>
		<path id="Path 14" class="s14" d="m144.2 51.5c0 1.9 0.2 2.3 0.5 1 0.2-1.1 0.2-2.5-0.1-3-0.2-0.5-0.4 0.4-0.4 2z"/>
		<path id="Path 15" class="s5" d="m101.2 103.7c0.9 0.2 2.2 0.2 3 0 0.7-0.3 0-0.5-1.7-0.5-1.7 0-2.3 0.2-1.3 0.5zm-30.2 13.3l-3.5 0.7c5.8 0.2 7.5-0.2 7.5-0.7 0-0.6-0.1-0.9-0.3-0.9-0.1 0.1-1.8 0.5-3.7 0.9z"/>
		<path id="Path 16" class="s6" d="m99.4 114c0 5.2 0.1 7.3 0.3 4.5 0.2-2.8 0.2-7 0-9.5-0.2-2.5-0.3-0.2-0.3 5z"/>
		<path id="Path 17" class="s7" d="m183.5 58.7c1.1 0.2 2.7 0.2 3.5 0 0.8-0.3-0.1-0.5-2-0.5-1.9 0-2.6 0.2-1.5 0.5z"/>
		<path id="Path 18" class="s9" d="m162.2 111.7c0.9 0.2 2.2 0.2 3 0 0.7-0.3 0-0.5-1.7-0.5-1.6 0-2.3 0.2-1.3 0.5z"/>
	</g>
</svg>