<svg width="42" height="42" viewBox="0 0 42 42" fill="none" xmlns="http://www.w3.org/2000/svg">
<g id="vuesax/bold/airplane">
<g id="airplane">
<path id="Vector" d="M27.6805 25.0073L26.5409 19.6426L26.2793 18.4554C26.2517 18.2606 26.3727 17.9519 26.5591 17.7743L29.7288 14.7539C30.7231 13.8064 31.4142 12.1672 31.2767 11.1103C31.2251 10.745 30.9768 10.4844 30.6144 10.4153C29.5723 10.2342 27.8913 10.8553 26.8969 11.8028L23.7273 14.8232C23.5408 15.0008 23.2267 15.1068 23.0335 15.0699L16.5636 13.3616C15.8597 13.1621 14.6895 13.5727 13.9852 14.2439L12.6179 15.5467C11.7374 16.3857 11.7439 17.2636 12.6411 17.4999L18.3346 18.9949C18.7797 19.1095 18.7829 19.5484 18.3375 19.9729L17.1878 21.0685L15.3233 22.8451C15.0851 23.0721 14.6536 23.3037 14.3775 23.3458L10.3635 23.9661C9.94937 24.0292 9.38665 24.4135 9.11035 24.8287L8.01206 26.4968C7.5251 27.2095 7.69727 27.9709 8.36672 28.0927L12.0802 27.8417C12.6497 27.7963 13.0567 28.2234 12.9839 28.79L12.5541 32.4871C12.6539 33.1518 13.3957 33.3703 14.1448 32.9328L15.864 31.9162C16.2817 31.6701 16.703 31.1167 16.786 30.706L17.5991 26.7267C17.6475 26.4457 17.8997 26.0259 18.1379 25.7988L21.1521 22.9266C21.5975 22.5022 22.0186 22.5292 22.1288 22.9767L23.3475 28.7357C23.5404 29.6432 24.4169 29.6919 25.2974 28.853L26.6646 27.5501C27.369 26.8789 27.8355 25.7299 27.6805 25.0073Z" fill="currentColor"/>
</g>
</g>
</svg>
