<svg width="33" height="33" viewBox="0 0 33 33" fill="none" xmlns="http://www.w3.org/2000/svg">
<g id="vuesax/linear/notification">
<g id="notification">
<path id="Vector" d="M16.5275 4.00146C11.9762 4.00146 8.2775 7.70021 8.2775 12.2515V16.2252C8.2775 17.064 7.92 18.3427 7.49375 19.0577L5.9125 21.684C4.93625 23.3065 5.61 25.1077 7.3975 25.7127C13.3237 27.6927 19.7175 27.6927 25.6437 25.7127C27.3075 25.1627 28.0362 23.1965 27.1287 21.684L25.5475 19.0577C25.135 18.3427 24.7775 17.064 24.7775 16.2252V12.2515C24.7775 7.71396 21.065 4.00146 16.5275 4.00146Z" stroke="white" stroke-width="1.5" stroke-miterlimit="10" stroke-linecap="round"/>
<path id="Vector_2" d="M19.0713 4.39998C18.645 4.27623 18.205 4.17998 17.7513 4.12498C16.4313 3.95998 15.1663 4.05623 13.9838 4.39998C14.3825 3.38248 15.3725 2.66748 16.5275 2.66748C17.6825 2.66748 18.6725 3.38248 19.0713 4.39998Z" stroke="white" stroke-width="1.5" stroke-miterlimit="10" stroke-linecap="round" stroke-linejoin="round"/>
<path id="Vector_3" d="M20.6525 26.2075C20.6525 28.4763 18.7963 30.3325 16.5275 30.3325C15.4 30.3325 14.355 29.865 13.6125 29.1225C12.87 28.38 12.4025 27.335 12.4025 26.2075" stroke="white" stroke-width="1.5" stroke-miterlimit="10"/>
</g>
</g>
</svg>
