<svg width="35" height="35" viewBox="0 0 35 35" fill="none" xmlns="http://www.w3.org/2000/svg">
<g id="broom">
<g id="Group">
<path id="Vector" d="M12.8626 7.14584L10.9959 4.05418C10.2959 2.91668 8.91049 2.27501 7.61257 2.65418C5.65841 3.23751 4.90007 5.43959 5.87716 7.05834L7.80216 10.2229C8.02091 10.5583 8.47299 10.675 8.80841 10.4708L12.6147 8.15209C12.9647 7.93334 13.0813 7.48126 12.8626 7.14584Z" fill="white"/>
<path id="Vector_2" d="M28.7876 20.7227L24.6897 15.181C23.2605 13.256 20.7814 12.3519 18.448 12.9789C18.448 12.9643 18.4335 12.9644 18.4335 12.9498L16.0126 8.96852C15.5751 8.2831 14.671 8.06435 13.9855 8.48727L8.92513 11.5644C8.22513 11.9727 8.00638 12.8914 8.4293 13.5914L10.8355 17.5727C10.8355 17.5727 10.8355 17.5873 10.8501 17.5873C9.23138 19.381 8.88138 21.9914 9.96054 24.1644L12.9939 30.3477C13.9272 32.2581 16.1293 32.9873 17.996 32.0248C18.1418 31.9518 18.1855 31.7769 18.098 31.631L15.823 27.8685C15.5022 27.3435 15.6626 26.6727 16.1876 26.3373C16.7126 26.031 17.3835 26.1914 17.7189 26.7019L20.0085 30.4644C20.096 30.5956 20.271 30.6394 20.4022 30.5664L21.8022 29.7206C21.9335 29.6331 21.9772 29.4581 21.9043 29.3269L19.6147 25.5644C19.3085 25.0394 19.4689 24.3685 19.9793 24.0331C20.5189 23.7269 21.1897 23.8873 21.5105 24.3977L23.8001 28.1602C23.8876 28.2914 24.0626 28.3352 24.1939 28.2623L25.5939 27.4164C25.7251 27.3289 25.7689 27.1539 25.696 27.0227L23.4064 23.2602C23.1001 22.7352 23.2605 22.0644 23.771 21.7289C24.3105 21.4227 24.9814 21.5831 25.3022 22.0935L27.6064 25.8414C27.6939 25.9727 27.8689 26.0164 28.0001 25.9289C29.6918 24.7185 30.071 22.4435 28.7876 20.7227Z" fill="white"/>
</g>
</g>
</svg>
