<svg width="35" height="35" viewBox="0 0 35 35" fill="none" xmlns="http://www.w3.org/2000/svg">
<g id="vuesax/bold/car">
<g id="car">
<path id="Vector" d="M31.7188 11.6665C31.7188 12.2645 31.2229 12.7603 30.625 12.7603H4.375C3.77708 12.7603 3.28125 12.2645 3.28125 11.6665C3.28125 11.0686 3.77708 10.5728 4.375 10.5728H5.8625L6.41667 7.9332C6.94167 5.38112 8.03542 3.0332 12.3813 3.0332H22.6188C26.9646 3.0332 28.0583 5.38112 28.5833 7.9332L29.1375 10.5728H30.625C31.2229 10.5728 31.7188 11.0686 31.7188 11.6665Z" fill="white"/>
<path id="Vector_2" d="M32.3457 19.9207C32.127 17.5144 31.4853 14.9478 26.8041 14.9478H8.19573C3.51448 14.9478 2.8874 17.5144 2.65407 19.9207L1.8374 28.8019C1.73532 29.9103 2.0999 31.0186 2.85823 31.8498C3.63115 32.6957 4.7249 33.1769 5.89157 33.1769H8.63323C10.9957 33.1769 11.4478 31.8207 11.7395 30.9311L12.0312 30.0561C12.3666 29.0498 12.4541 28.8019 13.7666 28.8019H21.2332C22.5457 28.8019 22.5895 28.9478 22.9687 30.0561L23.2603 30.9311C23.552 31.8207 24.0041 33.1769 26.3666 33.1769H29.1082C30.2603 33.1769 31.3687 32.6957 32.1416 31.8498C32.8999 31.0186 33.2645 29.9103 33.1624 28.8019L32.3457 19.9207ZM13.1249 22.9686H8.7499C8.15198 22.9686 7.65615 22.4728 7.65615 21.8748C7.65615 21.2769 8.15198 20.7811 8.7499 20.7811H13.1249C13.7228 20.7811 14.2187 21.2769 14.2187 21.8748C14.2187 22.4728 13.7228 22.9686 13.1249 22.9686ZM26.2499 22.9686H21.8749C21.277 22.9686 20.7812 22.4728 20.7812 21.8748C20.7812 21.2769 21.277 20.7811 21.8749 20.7811H26.2499C26.8478 20.7811 27.3437 21.2769 27.3437 21.8748C27.3437 22.4728 26.8478 22.9686 26.2499 22.9686Z" fill="white"/>
</g>
</g>
</svg>
