<svg width="20" height="20" viewBox="0 0 20 20" fill="none" xmlns="http://www.w3.org/2000/svg">
<g id="vuesax/bold/instagram">
<g id="instagram">
<path id="Vector" d="M13.4917 1.6665H6.50835C3.47502 1.6665 1.66669 3.47484 1.66669 6.50817V13.4832C1.66669 16.5248 3.47502 18.3332 6.50835 18.3332H13.4834C16.5167 18.3332 18.325 16.5248 18.325 13.4915V6.50817C18.3334 3.47484 16.525 1.6665 13.4917 1.6665ZM10 13.2332C8.21669 13.2332 6.76669 11.7832 6.76669 9.99984C6.76669 8.2165 8.21669 6.7665 10 6.7665C11.7834 6.7665 13.2334 8.2165 13.2334 9.99984C13.2334 11.7832 11.7834 13.2332 10 13.2332ZM14.9334 5.73317C14.8917 5.83317 14.8334 5.92484 14.7584 6.00817C14.675 6.08317 14.5834 6.1415 14.4834 6.18317C14.3834 6.22484 14.275 6.24984 14.1667 6.24984C13.9417 6.24984 13.7334 6.1665 13.575 6.00817C13.5 5.92484 13.4417 5.83317 13.4 5.73317C13.3584 5.63317 13.3334 5.52484 13.3334 5.4165C13.3334 5.30817 13.3584 5.19984 13.4 5.09984C13.4417 4.9915 13.5 4.90817 13.575 4.82484C13.7667 4.63317 14.0584 4.5415 14.325 4.59984C14.3834 4.60817 14.4334 4.62484 14.4834 4.64984C14.5334 4.6665 14.5834 4.6915 14.6334 4.72484C14.675 4.74984 14.7167 4.7915 14.7584 4.82484C14.8334 4.90817 14.8917 4.9915 14.9334 5.09984C14.975 5.19984 15 5.30817 15 5.4165C15 5.52484 14.975 5.63317 14.9334 5.73317Z" fill="white"/>
</g>
</g>
</svg>
