<svg width="22" height="22" viewBox="0 0 22 22" fill="none" xmlns="http://www.w3.org/2000/svg">
<path d="M8.42236 10.1408C8.42236 10.8244 8.69392 11.48 9.1773 11.9634C9.66067 12.4468 10.3163 12.7183 10.9999 12.7183C11.6835 12.7183 12.3391 12.4468 12.8224 11.9634C13.3058 11.48 13.5774 10.8244 13.5774 10.1408C13.5774 9.45724 13.3058 8.80165 12.8224 8.31827C12.3391 7.8349 11.6835 7.56334 10.9999 7.56334C10.3163 7.56334 9.66067 7.8349 9.1773 8.31827C8.69392 8.80165 8.42236 9.45724 8.42236 10.1408Z" stroke="#737373" stroke-width="1.38" stroke-linecap="round" stroke-linejoin="round"/>
<path d="M15.8601 15.0011L12.2147 18.6466C11.8925 18.9685 11.4557 19.1493 11.0002 19.1493C10.5448 19.1493 10.108 18.9685 9.7858 18.6466L6.1395 15.0011C5.17828 14.0399 4.52369 12.8152 4.25851 11.4819C3.99333 10.1486 4.12947 8.7666 4.6497 7.51069C5.16994 6.25477 6.05091 5.18132 7.18122 4.42609C8.31152 3.67085 9.6404 3.26775 10.9998 3.26775C12.3592 3.26775 13.6881 3.67085 14.8184 4.42609C15.9487 5.18132 16.8297 6.25477 17.3499 7.51069C17.8701 8.7666 18.0063 10.1486 17.7411 11.4819C17.4759 12.8152 16.8213 14.0399 15.8601 15.0011Z" stroke="#737373" stroke-width="1.38" stroke-linecap="round" stroke-linejoin="round"/>
</svg>
