<svg width="35" height="35" viewBox="0 0 35 35" fill="none" xmlns="http://www.w3.org/2000/svg">
<g id="vuesax/bold/milk">
<g id="milk">
<path id="Vector" d="M26.25 23.3331V27.7081C26.25 30.1144 24.2812 32.0831 21.875 32.0831H13.125C10.7188 32.0831 8.75 30.1144 8.75 27.7081V21.8602C8.75 21.0581 9.40625 20.4019 10.2229 20.4019L14.4229 20.4164C15.4292 20.4164 16.4208 20.6352 17.3396 21.0727C18.3458 21.5394 19.4104 21.8748 20.5333 21.8748H24.7917C25.5938 21.8748 26.25 22.531 26.25 23.3331Z" fill="white"/>
<path id="Vector_2" d="M25.3896 13.7228L22.2979 10.6311C22.0208 10.354 21.875 9.98942 21.875 9.61025V7.16025C22.7208 6.86859 23.3333 6.05192 23.3333 5.104C23.3333 3.89359 22.3563 2.9165 21.1458 2.9165H13.8542C12.6438 2.9165 11.6667 3.89359 11.6667 5.104C11.6667 6.05192 12.2792 6.86859 13.125 7.16025V9.61025C13.125 9.98942 12.9792 10.354 12.7021 10.6311L9.61042 13.7228C9.14375 14.1894 8.75 15.1373 8.75 15.7936V16.7415C8.75 17.5436 9.39167 18.1998 10.1937 18.1998L14.4375 18.229C15.8667 18.229 17.3104 18.579 18.5938 19.2498C19.2063 19.5707 19.9062 19.6873 20.5917 19.6873H24.7917C25.5938 19.6873 26.25 19.0311 26.25 18.229V15.7936C26.25 15.1373 25.8563 14.1894 25.3896 13.7228Z" fill="white"/>
</g>
</g>
</svg>
