<svg width="12" height="9" viewBox="0 0 12 9" fill="none" xmlns="http://www.w3.org/2000/svg">
<path d="M4.23945 7.57314L4.23776 7.57314C4.2252 7.57316 4.21276 7.57069 4.20115 7.56588C4.18953 7.56106 4.17899 7.55401 4.17012 7.54511L4.16936 7.54435L1.03532 4.41034L1.03533 4.41033L1.03241 4.40744C1.02323 4.39836 1.01593 4.38756 1.01094 4.37566L0.348629 4.65334L1.01094 4.37566C1.00595 4.36376 1.00336 4.35098 1.00333 4.33808C1.00329 4.32517 1.0058 4.31238 1.01073 4.30045C1.01565 4.28852 1.02288 4.27768 1.03201 4.26855C1.04113 4.25942 1.05197 4.25219 1.06391 4.24727C1.07584 4.24234 1.08863 4.23983 1.10153 4.23987C1.11444 4.2399 1.12721 4.24249 1.13912 4.24748L1.41677 3.58515L1.13912 4.24748C1.15102 4.25247 1.16182 4.25976 1.17089 4.26894L1.17089 4.26895L1.17377 4.27184L3.73076 6.82879L4.23858 7.33661L4.7464 6.82879L10.8285 0.746708C10.8286 0.746615 10.8287 0.746522 10.8288 0.746429C10.8472 0.728301 10.8719 0.718143 10.8977 0.71817C10.9237 0.718198 10.9485 0.728514 10.9669 0.746856C10.9852 0.765198 10.9955 0.790067 10.9956 0.816001C10.9956 0.841816 10.9854 0.866589 10.9673 0.88494C10.9672 0.885028 10.9671 0.885117 10.967 0.885206L4.30781 7.54441L4.30712 7.54511C4.29824 7.55401 4.2877 7.56107 4.27608 7.56588C4.26447 7.57069 4.25202 7.57316 4.23945 7.57314Z" fill="#1E2022" stroke="white" stroke-width="1.43634"/>
</svg>
