<svg width="24" height="26" viewBox="0 0 24 26" fill="none" xmlns="http://www.w3.org/2000/svg">
<path d="M16.4032 15.4645C14.9569 15.4645 14.2615 16.2264 11.8881 16.2264C9.51471 16.2264 8.82435 15.4645 7.37309 15.4645C3.63407 15.4645 0.600525 18.3312 0.600525 21.8646V23.0836C0.600525 24.3456 1.68393 25.3694 3.0193 25.3694H20.757C22.0923 25.3694 23.1757 24.3456 23.1757 23.0836V21.8646C23.1757 18.3312 20.1422 15.4645 16.4032 15.4645ZM11.8881 14.7026C15.8942 14.7026 19.1444 11.6311 19.1444 7.84538C19.1444 4.05962 15.8942 0.988159 11.8881 0.988159C7.88204 0.988159 4.63181 4.05962 4.63181 7.84538C4.63181 11.6311 7.88204 14.7026 11.8881 14.7026Z" fill="currentColor"/>
</svg>
